<svg width="116" height="145" viewBox="0 0 116 145" fill="none" xmlns="http://www.w3.org/2000/svg">
<path d="M40.1813 33.7064C42.1406 33.7064 43.7359 32.1111 43.7359 30.148V23.2635C43.7359 14.3617 50.9882 7.10557 59.9209 7.10557C68.8537 7.10557 76.1099 14.3617 76.1099 23.2635V30.148C76.1099 32.1111 77.7013 33.7064 79.6644 33.7064C81.6275 33.7064 83.2228 32.1111 83.2228 30.148V24.2315C83.2228 11.7985 73.8912 0.875484 61.4581 0.0507422C47.9448 -0.832079 36.623 9.92053 36.623 23.2635V30.148C36.623 32.1111 38.2182 33.7064 40.1813 33.7064Z" fill="#333333"/>
<mask id="mask0_199_49" style="mask-type:luminance" maskUnits="userSpaceOnUse" x="9" y="39" width="107" height="103">
<path d="M9.9409 39.4175H115.879V141.515H9.9409V39.4175Z" fill="white"/>
</mask>
<g mask="url(#mask0_199_49)">
<path d="M114.969 126.162L107.148 50.0617C106.521 44.002 101.429 39.4214 95.3422 39.4214H24.5035C18.4167 39.4214 13.325 44.033 12.6977 50.0617L10.7346 69.0075C9.42586 81.7271 21.5182 91.655 33.7228 87.9262L40.3517 85.9089C47.8905 83.6012 56.3083 87.4151 59.2665 95.7787C60.2926 98.6788 60.1494 101.866 59.2394 104.824L56.3083 114.384C52.2698 127.583 62.1396 140.926 75.9395 140.926H101.657C109.591 140.896 115.794 134.042 114.969 126.162Z" fill="#27AE60"/>
</g>
<path d="M42.853 94.0442L4.53548 105.734C-1.04024 107.441 -1.43906 115.182 3.93531 117.454L13.0694 121.295C17.9056 123.344 21.7737 127.185 23.822 132.052L27.6631 141.182C29.9398 146.56 37.6761 146.162 39.3837 140.586L51.0733 102.264C52.6415 97.2309 47.9176 92.507 42.853 94.0442Z" fill="#333333"/>
</svg>
